<?xml version="1.0" standalone="no"?>
<!DOCTYPE svg PUBLIC "-//W3C//DTD SVG 20010904//EN"
 "http://www.w3.org/TR/2001/REC-SVG-20010904/DTD/svg10.dtd">
<svg version="1.0" xmlns="http://www.w3.org/2000/svg"
 width="1248.000000pt" height="934.000000pt" viewBox="0 0 1248.000000 934.000000"
 preserveAspectRatio="xMidYMid meet">

<g transform="translate(0.000000,934.000000) scale(0.100000,-0.100000)"
fill="#000000" stroke="none">
<path d="M1430 8140 l0 -160 -50 0 c-27 0 -50 -4 -50 -10 0 -5 23 -10 50 -10
l50 0 0 -3530 0 -3530 170 0 170 0 0 -50 c0 -27 5 -50 10 -50 6 0 10 23 10 50
l0 50 1080 0 1080 0 0 -50 c0 -27 5 -50 10 -50 6 0 10 23 10 50 l0 50 1070 0
1070 0 0 -50 c0 -27 5 -50 10 -50 6 0 10 23 10 50 l0 50 1080 0 1080 0 0 -50
c0 -27 5 -50 10 -50 6 0 10 23 10 50 l0 50 1080 0 1080 0 0 -50 c0 -27 5 -50
10 -50 6 0 10 23 10 50 l0 50 440 0 440 0 0 3700 0 3700 -4970 0 -4970 0 0
-160z m9920 -3540 l0 -3680 -4950 0 -4950 0 0 3680 0 3680 4950 0 4950 0 0
-3680z"/>
<path d="M1853 8015 c-13 -13 -23 -31 -23 -40 0 -8 -4 -15 -10 -15 -7 0 -10
-340 -10 -1000 0 -660 3 -1000 10 -1000 6 0 10 -7 10 -16 0 -18 23 -44 40 -44
39 0 40 -9 40 -544 0 -337 3 -516 10 -516 6 0 10 -7 10 -16 0 -18 23 -44 40
-44 6 0 18 -6 26 -14 11 -12 14 -66 14 -300 0 -184 4 -286 10 -286 6 0 10 -7
10 -16 0 -20 24 -44 43 -44 9 0 18 -6 21 -12 5 -10 7 -10 12 0 19 40 24 -11
24 -238 0 -160 4 -250 10 -250 6 0 10 -7 10 -15 0 -20 45 -65 65 -65 13 0 15
-21 15 -150 0 -93 4 -150 10 -150 6 0 10 -7 10 -16 0 -20 24 -44 43 -44 9 0
18 -6 21 -12 5 -10 7 -10 12 0 17 35 24 -1 24 -118 0 -80 4 -130 10 -130 6 0
10 -7 10 -16 0 -18 23 -44 40 -44 31 0 40 -29 40 -134 0 -64 4 -106 10 -106 6
0 10 -7 10 -16 0 -26 26 -44 64 -44 l36 0 0 -70 c0 -40 4 -70 10 -70 6 0 10
-7 10 -16 0 -23 25 -44 54 -44 25 0 26 -2 26 -60 0 -33 4 -60 10 -60 6 0 10
-7 10 -15 0 -20 45 -65 65 -65 11 0 15 -11 15 -40 0 -22 5 -40 10 -40 6 0 10
-7 10 -16 0 -26 26 -44 64 -44 33 0 36 -2 36 -30 0 -16 5 -30 10 -30 6 0 10
-7 10 -16 0 -18 23 -44 40 -44 14 0 60 -46 60 -60 0 -16 26 -40 43 -40 9 0 18
-6 21 -12 5 -11 7 -11 12 0 9 19 24 14 24 -8 0 -11 5 -20 10 -20 6 0 10 -7 10
-16 0 -20 24 -44 44 -44 9 0 16 -4 16 -10 0 -5 9 -10 20 -10 12 0 20 -7 20
-16 0 -28 27 -44 74 -44 35 0 46 -4 46 -16 0 -20 24 -44 43 -44 9 0 18 -6 20
-12 4 -10 8 -9 16 2 8 12 13 11 29 -8 11 -12 27 -22 36 -22 9 0 16 -4 16 -10
0 -5 8 -10 18 -10 10 0 24 -9 32 -20 12 -16 26 -20 72 -20 32 0 58 -4 58 -10
0 -5 9 -10 19 -10 11 0 22 -6 24 -12 4 -10 8 -9 16 2 8 12 13 11 29 -8 16 -18
30 -22 76 -22 31 0 56 -4 56 -10 0 -5 23 -10 50 -10 28 0 50 -4 50 -10 0 -5 9
-10 19 -10 11 0 22 -6 25 -13 5 -9 7 -9 12 1 7 14 64 17 64 2 0 -5 23 -10 50
-10 28 0 50 -4 50 -10 0 -5 9 -10 19 -10 11 0 22 -6 25 -12 5 -10 7 -10 12 0
9 18 38 14 54 -8 15 -21 70 -28 70 -10 0 6 9 10 20 10 11 0 20 -4 20 -10 0 -6
27 -10 60 -10 33 0 60 -4 60 -10 0 -5 14 -10 30 -10 17 0 30 5 30 10 0 6 9 10
20 10 11 0 20 -4 20 -10 0 -5 23 -10 50 -10 28 0 50 -4 50 -10 0 -15 97 -12
104 3 5 9 7 9 12 0 3 -8 25 -13 54 -13 29 0 51 5 54 13 5 9 7 9 12 0 3 -7 18
-13 34 -13 16 0 30 6 33 13 3 8 11 5 24 -10 18 -21 29 -23 117 -23 57 0 96 -4
96 -10 0 -16 89 -12 106 4 19 19 19 113 0 132 -11 10 -41 14 -110 14 -57 0
-96 4 -96 10 0 6 -22 10 -50 10 -27 0 -50 -4 -50 -10 0 -5 -9 -10 -20 -10 -11
0 -20 5 -20 10 0 15 -57 12 -64 -2 -5 -10 -7 -10 -12 0 -4 7 -27 12 -65 12
-33 0 -59 4 -59 10 0 6 -43 10 -110 10 -67 0 -110 4 -110 10 0 6 -43 10 -108
10 -96 0 -109 2 -122 20 -10 14 -26 20 -52 20 -21 0 -38 5 -38 10 0 6 -27 10
-60 10 -33 0 -60 4 -60 10 0 15 -58 12 -63 -2 -3 -9 -11 -6 -24 10 -16 17 -31
22 -67 22 -25 0 -46 5 -46 10 0 6 -27 10 -60 10 -33 0 -60 4 -60 10 0 6 -9 10
-19 10 -11 0 -22 6 -24 13 -4 9 -8 8 -16 -3 -8 -12 -13 -11 -29 8 -15 16 -30
22 -63 22 -33 0 -48 5 -59 20 -8 11 -22 20 -31 20 -10 0 -20 6 -23 13 -5 9 -7
9 -12 0 -8 -18 -24 -16 -24 3 0 26 -26 44 -64 44 -26 0 -36 4 -36 16 0 28 -27
44 -74 44 -35 0 -46 4 -46 15 0 18 -44 65 -60 65 -15 0 -40 25 -40 40 0 16
-26 40 -43 40 -9 0 -18 6 -21 13 -5 9 -7 9 -12 0 -10 -23 -24 -13 -24 17 0 17
-4 30 -10 30 -5 0 -10 7 -10 16 0 23 -25 44 -54 44 -22 0 -26 4 -26 30 0 17
-4 30 -10 30 -5 0 -10 7 -10 16 0 26 -26 44 -64 44 -35 0 -36 1 -36 40 0 22
-4 40 -10 40 -5 0 -10 7 -10 16 0 18 -23 44 -40 44 -26 0 -40 30 -40 84 0 31
-4 56 -10 56 -5 0 -10 7 -10 16 0 23 -25 44 -54 44 -25 0 -26 1 -26 70 0 40
-4 70 -10 70 -5 0 -10 7 -10 16 0 20 -24 44 -43 44 -9 0 -18 6 -21 13 -5 10
-7 10 -12 0 -16 -35 -24 -2 -24 97 0 67 -4 110 -10 110 -5 0 -10 7 -10 15 0
20 -45 65 -65 65 -13 0 -15 18 -15 120 0 73 -4 120 -10 120 -5 0 -10 7 -10 16
0 20 -24 44 -43 44 -9 0 -18 6 -21 13 -5 9 -7 10 -12 0 -17 -38 -24 2 -24 147
0 100 -4 160 -10 160 -5 0 -10 7 -10 16 0 18 -23 44 -40 44 -36 0 -40 23 -40
264 0 151 -4 236 -10 236 -5 0 -10 7 -10 16 0 20 -24 44 -43 44 -9 0 -18 6
-21 13 -5 10 -7 10 -12 0 -19 -42 -24 14 -24 287 0 193 -4 300 -10 300 -5 0
-10 7 -10 16 0 18 -23 44 -40 44 -39 0 -40 9 -40 544 0 337 -3 516 -10 516 -5
0 -10 7 -10 15 0 20 -45 65 -65 65 -13 0 -15 101 -15 960 0 633 -3 960 -10
960 -5 0 -10 7 -10 15 0 24 -46 65 -72 64 -13 0 -33 -11 -45 -24z"/>
<path d="M5643 1325 c-18 -19 -16 -93 1 -111 9 -9 35 -14 70 -14 31 0 56 -4
56 -10 0 -20 51 -10 75 15 29 28 35 97 11 121 -20 20 -196 19 -213 -1z"/>
<path d="M5963 1305 c-18 -19 -16 -93 1 -111 19 -18 93 -18 112 0 8 8 14 33
14 56 0 23 -6 48 -14 56 -19 18 -97 18 -113 -1z"/>
<path d="M6403 1305 c-18 -19 -16 -93 1 -111 18 -18 102 -19 110 -1 5 10 7 10
12 0 17 -37 104 11 104 57 0 46 -87 94 -104 58 -5 -10 -7 -10 -12 0 -8 17 -96
15 -111 -3z"/>
<path d="M7053 1295 c-13 -13 -23 -34 -23 -45 0 -27 43 -70 70 -70 27 0 70 43
70 70 0 28 -44 70 -72 69 -13 0 -33 -11 -45 -24z"/>
<path d="M10853 1295 c-13 -13 -23 -34 -23 -45 0 -27 43 -70 70 -70 27 0 70
43 70 70 0 28 -44 70 -72 69 -13 0 -33 -11 -45 -24z"/>
<path d="M873 5015 c-18 -19 -23 -36 -23 -80 l0 -55 100 0 100 0 0 55 c0 78
-27 105 -102 104 -43 0 -57 -5 -75 -24z m132 -20 c17 -16 25 -35 25 -60 l0
-35 -80 0 -80 0 0 35 c0 75 84 112 135 60z"/>
<path d="M850 4810 c0 -6 40 -10 100 -10 60 0 100 4 100 10 0 6 -40 10 -100
10 -60 0 -100 -4 -100 -10z"/>
<path d="M913 4735 c-30 -31 -29 -60 2 -90 51 -52 135 -15 135 60 0 19 -4 35
-10 35 -5 0 -10 -16 -10 -36 0 -38 -18 -64 -44 -64 -13 0 -16 12 -16 60 0 51
-3 60 -17 59 -10 0 -28 -11 -40 -24z m37 -45 c0 -53 -3 -58 -26 -36 -17 18
-18 52 -1 71 21 24 27 17 27 -35z"/>
<path d="M903 4565 c-7 -8 -13 -25 -13 -39 0 -13 6 -27 13 -30 10 -5 10 -7 0
-12 -32 -15 -6 -24 67 -24 47 0 80 4 80 10 0 6 -25 10 -56 10 -54 0 -84 14
-84 40 0 26 30 40 84 40 31 0 56 5 56 10 0 16 -133 12 -147 -5z"/>
<path d="M913 4395 c-26 -28 -30 -79 -9 -101 9 -9 35 -14 70 -14 49 0 56 2 56
20 0 11 5 20 10 20 6 0 10 18 10 40 0 22 -4 40 -10 40 -5 0 -10 -16 -10 -36 0
-38 -18 -64 -44 -64 -13 0 -16 12 -16 60 0 51 -3 60 -17 59 -10 0 -28 -11 -40
-24z m37 -55 c0 -43 -4 -47 -26 -26 -22 23 -18 66 6 66 17 0 20 -7 20 -40z"/>
<path d="M890 4241 c0 -11 6 -22 13 -25 10 -5 10 -7 0 -12 -17 -8 -16 -52 1
-70 9 -8 35 -14 66 -14 31 0 57 6 66 14 16 17 19 66 4 66 -5 0 -10 5 -10 10 0
15 29 12 46 -4 8 -8 14 -26 14 -40 0 -14 5 -26 10 -26 15 0 12 70 -4 86 -8 8
-22 14 -30 14 -9 0 -16 5 -16 10 0 6 -33 10 -80 10 -72 0 -80 -2 -80 -19z
m126 -35 c29 -30 4 -66 -46 -66 -32 0 -60 19 -60 40 0 36 76 55 106 26z"/>
<path d="M1753 675 c-33 -35 -32 -117 2 -150 13 -14 34 -25 45 -25 25 0 50 22
50 44 0 9 5 16 10 16 6 0 10 18 10 40 0 22 -4 40 -10 40 -5 0 -10 7 -10 16 0
45 -61 57 -97 19z m63 -9 c8 -9 14 -35 14 -66 0 -53 -15 -80 -44 -80 -9 0 -16
8 -16 20 0 11 -4 20 -10 20 -5 0 -10 18 -10 40 0 22 5 40 10 40 6 0 10 9 10
20 0 23 25 27 46 6z"/>
<path d="M3801 684 c-7 -8 -10 -18 -6 -22 4 -4 10 -1 12 6 11 28 83 4 83 -28
0 -6 -22 -33 -50 -60 -68 -66 -66 -80 10 -80 33 0 60 4 60 10 0 6 -18 10 -40
10 -22 0 -40 3 -40 6 0 3 18 23 40 44 43 41 53 88 26 116 -19 18 -77 17 -95
-2z"/>
<path d="M3983 685 c-8 -8 -13 -43 -13 -85 0 -81 11 -100 60 -100 38 0 60 20
60 54 0 14 5 26 10 26 6 0 10 9 10 20 0 11 -4 20 -10 20 -5 0 -10 12 -10 26 0
14 -6 32 -14 40 -19 18 -77 18 -93 -1z m73 -19 c32 -32 12 -146 -26 -146 -25
0 -40 30 -40 80 0 70 31 101 66 66z"/>
<path d="M6023 665 c-18 -19 -33 -41 -33 -50 0 -8 -4 -15 -10 -15 -5 0 -10 -9
-10 -20 0 -17 7 -20 40 -20 38 0 40 -2 40 -30 0 -23 4 -30 20 -30 15 0 20 7
20 29 0 16 6 32 13 35 10 5 10 7 0 12 -8 4 -13 27 -13 65 0 50 -3 59 -17 58
-10 0 -33 -16 -50 -34z m27 -45 c0 -38 -2 -40 -30 -40 -35 0 -38 10 -10 30 11
8 20 22 20 32 0 10 5 18 10 18 6 0 10 -18 10 -40z"/>
<path d="M6143 685 c-8 -8 -13 -43 -13 -85 0 -81 11 -100 60 -100 38 0 60 20
60 54 0 14 5 26 10 26 6 0 10 9 10 20 0 11 -4 20 -10 20 -5 0 -10 12 -10 26 0
14 -6 32 -14 40 -19 18 -77 18 -93 -1z m73 -19 c32 -32 12 -146 -26 -146 -25
0 -40 30 -40 80 0 70 31 101 66 66z"/>
<path d="M8153 675 c-33 -35 -32 -117 2 -150 13 -14 34 -25 45 -25 27 0 70 43
70 70 0 29 -44 70 -75 70 -14 0 -25 3 -25 6 0 14 31 34 54 34 14 0 26 5 26 10
0 6 -17 10 -37 9 -27 0 -45 -7 -60 -24z m77 -74 c0 -11 6 -22 13 -25 10 -5 10
-7 0 -12 -7 -3 -13 -14 -13 -25 0 -14 -7 -19 -30 -19 -28 0 -30 3 -30 35 0 20
6 42 13 50 18 21 47 18 47 -4z"/>
<path d="M8330 680 c0 -11 -4 -20 -10 -20 -6 0 -10 -27 -10 -60 0 -33 4 -60
10 -60 6 0 10 -9 10 -20 0 -16 7 -20 36 -20 38 0 64 18 64 44 0 9 5 16 10 16
6 0 10 18 10 40 0 22 -4 40 -10 40 -5 0 -10 7 -10 16 0 26 -26 44 -64 44 -29
0 -36 -4 -36 -20z m66 -14 c32 -32 12 -146 -26 -146 -25 0 -40 30 -40 80 0 70
31 101 66 66z"/>
<path d="M10330 681 c0 -11 -6 -22 -12 -25 -10 -5 -10 -7 0 -12 14 -7 17 -64
2 -64 -15 0 -12 -49 4 -66 19 -18 93 -18 112 0 20 21 17 56 -8 77 l-21 19 22
20 23 19 -26 26 c-32 32 -96 36 -96 6z m80 -31 c0 -27 -3 -30 -30 -30 -27 0
-30 3 -30 30 0 27 3 30 30 30 27 0 30 -3 30 -30z m6 -64 c8 -8 14 -20 14 -26
0 -18 -27 -40 -50 -40 -23 0 -50 21 -50 40 0 35 59 53 86 26z"/>
<path d="M10510 680 c0 -11 -4 -20 -10 -20 -6 0 -10 -27 -10 -60 0 -33 4 -60
10 -60 6 0 10 -9 10 -20 0 -16 7 -20 36 -20 38 0 64 18 64 44 0 9 5 16 10 16
6 0 10 18 10 40 0 22 -4 40 -10 40 -5 0 -10 7 -10 16 0 26 -26 44 -64 44 -29
0 -36 -4 -36 -20z m66 -14 c32 -32 12 -146 -26 -146 -25 0 -40 30 -40 80 0 70
31 101 66 66z"/>
<path d="M6530 230 c0 -67 4 -110 10 -110 6 0 10 43 10 110 0 67 -4 110 -10
110 -6 0 -10 -43 -10 -110z"/>
<path d="M6210 250 c0 -16 5 -30 10 -30 6 0 10 -13 10 -30 0 -16 5 -30 10 -30
6 0 10 -9 10 -20 0 -13 7 -20 20 -20 13 0 20 7 20 20 0 11 5 20 10 20 6 0 10
9 10 20 0 11 5 20 10 20 6 0 10 14 10 30 0 17 5 30 10 30 6 0 10 5 10 10 0 6
-9 10 -20 10 -16 0 -20 -7 -20 -30 0 -16 -4 -30 -10 -30 -5 0 -10 -13 -10 -30
0 -16 -3 -30 -6 -30 -14 0 -34 31 -34 54 0 14 -4 26 -10 26 -5 0 -10 9 -10 20
0 11 -4 20 -10 20 -5 0 -10 -13 -10 -30z"/>
<path d="M6370 270 c0 -5 12 -10 26 -10 23 0 54 -20 54 -34 0 -3 -16 -6 -36
-6 -40 0 -64 -19 -64 -50 0 -12 6 -28 14 -36 18 -17 62 -18 70 -1 5 10 7 10
12 0 3 -7 14 -13 25 -13 16 0 19 7 19 50 0 28 -4 50 -10 50 -5 0 -10 7 -10 16
0 8 -6 22 -14 30 -16 16 -86 19 -86 4z m80 -86 c0 -18 -23 -44 -40 -44 -6 0
-18 7 -26 15 -13 12 -13 17 -2 29 18 21 68 21 68 0z"/>
</g>
</svg>
