<?xml version="1.0" standalone="no"?>
<!DOCTYPE svg PUBLIC "-//W3C//DTD SVG 20010904//EN"
 "http://www.w3.org/TR/2001/REC-SVG-20010904/DTD/svg10.dtd">
<svg version="1.0" xmlns="http://www.w3.org/2000/svg"
 width="1250.000000pt" height="944.000000pt" viewBox="0 0 1250.000000 944.000000"
 preserveAspectRatio="xMidYMid meet">

<g transform="translate(0.000000,944.000000) scale(0.100000,-0.100000)"
fill="#000000" stroke="none">
<path d="M1450 8280 l0 -160 -50 0 c-27 0 -50 -4 -50 -10 0 -5 23 -10 50 -10
l50 0 0 -3530 0 -3530 570 0 570 0 0 -50 c0 -27 5 -50 10 -50 6 0 10 23 10 50
l0 50 690 0 690 0 0 -50 c0 -27 5 -50 10 -50 6 0 10 23 10 50 l0 50 680 0 680
0 0 -50 c0 -27 5 -50 10 -50 6 0 10 23 10 50 l0 50 680 0 680 0 0 -50 c0 -27
5 -50 10 -50 6 0 10 23 10 50 l0 50 690 0 690 0 0 -50 c0 -27 5 -50 10 -50 6
0 10 23 10 50 l0 50 680 0 680 0 0 -50 c0 -27 5 -50 10 -50 6 0 10 23 10 50
l0 50 680 0 680 0 0 -50 c0 -27 5 -50 10 -50 6 0 10 23 10 50 l0 50 230 0 230
0 0 3700 0 3700 -4970 0 -4970 0 0 -160z m9920 -3540 l0 -3680 -4950 0 -4950
0 0 3680 0 3680 4950 0 4950 0 0 -3680z"/>
<path d="M1873 8155 c-13 -13 -23 -31 -23 -40 0 -8 -4 -15 -10 -15 -7 0 -10
-723 -10 -2150 0 -1427 3 -2150 10 -2150 6 0 10 -7 10 -15 0 -23 46 -65 70
-65 24 0 70 42 70 65 0 8 5 15 10 15 7 0 10 723 10 2150 0 1427 -3 2150 -10
2150 -5 0 -10 7 -10 15 0 24 -46 65 -72 64 -13 0 -33 -11 -45 -24z"/>
<path d="M2543 3845 c-7 -8 -13 -26 -13 -40 0 -14 -4 -25 -10 -25 -7 0 -10
-270 -10 -790 0 -520 3 -790 10 -790 6 0 10 -7 10 -16 0 -27 27 -44 70 -44 43
0 70 17 70 44 0 9 5 16 10 16 7 0 10 270 10 790 0 520 -3 790 -10 790 -5 0
-10 12 -10 26 0 14 -6 32 -14 40 -19 18 -97 18 -113 -1z"/>
<path d="M3253 2255 c-13 -13 -23 -31 -23 -40 0 -8 -4 -15 -10 -15 -6 0 -10
-87 -10 -240 0 -153 4 -240 10 -240 6 0 10 -12 10 -26 0 -37 22 -54 70 -54 48
0 70 17 70 54 0 14 5 26 10 26 6 0 10 87 10 240 0 153 -4 240 -10 240 -5 0
-10 7 -10 15 0 24 -46 65 -72 64 -13 0 -33 -11 -45 -24z"/>
<path d="M3943 1765 c-7 -8 -13 -26 -13 -40 0 -14 -4 -25 -10 -25 -6 0 -10
-33 -10 -80 0 -47 4 -80 10 -80 6 0 10 -12 10 -26 0 -37 22 -54 70 -54 48 0
70 17 70 54 0 14 5 26 10 26 6 0 10 33 10 80 0 47 -4 80 -10 80 -5 0 -10 12
-10 26 0 14 -6 32 -14 40 -19 18 -97 18 -113 -1z"/>
<path d="M4623 1585 c-7 -8 -13 -26 -13 -40 0 -14 -4 -25 -10 -25 -5 0 -10
-18 -10 -40 0 -22 5 -40 10 -40 6 0 10 -12 10 -26 0 -37 22 -54 70 -54 48 0
70 17 70 54 0 14 5 26 10 26 6 0 10 18 10 40 0 22 -4 40 -10 40 -5 0 -10 12
-10 26 0 14 -6 32 -14 40 -19 18 -97 18 -113 -1z"/>
<path d="M5323 1485 c-7 -8 -13 -33 -13 -55 0 -46 34 -90 70 -90 36 0 70 44
70 90 0 23 -6 48 -14 56 -19 18 -97 18 -113 -1z"/>
<path d="M6023 1465 c-18 -20 -17 -113 1 -131 8 -8 33 -14 56 -14 55 0 70 17
70 80 0 31 -6 57 -14 66 -19 18 -97 18 -113 -1z"/>
<path d="M6713 1435 c-13 -13 -23 -34 -23 -45 0 -27 43 -70 70 -70 27 0 70 43
70 70 0 28 -44 70 -72 69 -13 0 -33 -11 -45 -24z"/>
<path d="M7413 1435 c-13 -13 -23 -34 -23 -45 0 -27 43 -70 70 -70 27 0 70 43
70 70 0 28 -44 70 -72 69 -13 0 -33 -11 -45 -24z"/>
<path d="M10873 1435 c-13 -13 -23 -34 -23 -45 0 -27 43 -70 70 -70 27 0 70
43 70 70 0 28 -44 70 -72 69 -13 0 -33 -11 -45 -24z"/>
<path d="M893 5155 c-18 -19 -23 -36 -23 -80 l0 -55 100 0 100 0 0 55 c0 78
-27 105 -102 104 -43 0 -57 -5 -75 -24z m132 -20 c17 -16 25 -35 25 -60 l0
-35 -80 0 -80 0 0 35 c0 75 84 112 135 60z"/>
<path d="M870 4950 c0 -6 40 -10 100 -10 60 0 100 4 100 10 0 6 -40 10 -100
10 -60 0 -100 -4 -100 -10z"/>
<path d="M933 4875 c-30 -31 -29 -60 2 -90 51 -52 135 -15 135 60 0 19 -4 35
-10 35 -5 0 -10 -16 -10 -36 0 -38 -18 -64 -44 -64 -13 0 -16 12 -16 60 0 51
-3 60 -17 59 -10 0 -28 -11 -40 -24z m37 -45 c0 -53 -3 -58 -26 -36 -17 18
-18 52 -1 71 21 24 27 17 27 -35z"/>
<path d="M923 4705 c-7 -8 -13 -25 -13 -39 0 -13 6 -27 13 -30 10 -5 10 -7 0
-12 -32 -15 -6 -24 67 -24 47 0 80 4 80 10 0 6 -25 10 -56 10 -54 0 -84 14
-84 40 0 26 30 40 84 40 31 0 56 5 56 10 0 16 -133 12 -147 -5z"/>
<path d="M933 4535 c-26 -28 -30 -79 -9 -101 9 -9 35 -14 70 -14 49 0 56 2 56
20 0 11 5 20 10 20 6 0 10 18 10 40 0 22 -4 40 -10 40 -5 0 -10 -16 -10 -36 0
-38 -18 -64 -44 -64 -13 0 -16 12 -16 60 0 51 -3 60 -17 59 -10 0 -28 -11 -40
-24z m37 -55 c0 -43 -4 -47 -26 -26 -22 23 -18 66 6 66 17 0 20 -7 20 -40z"/>
<path d="M910 4381 c0 -11 6 -22 13 -25 10 -5 10 -7 0 -12 -17 -8 -16 -52 1
-70 9 -8 35 -14 66 -14 31 0 57 6 66 14 16 17 19 66 4 66 -5 0 -10 5 -10 10 0
15 29 12 46 -4 8 -8 14 -26 14 -40 0 -14 5 -26 10 -26 15 0 12 70 -4 86 -8 8
-22 14 -30 14 -9 0 -16 5 -16 10 0 6 -33 10 -80 10 -72 0 -80 -2 -80 -19z
m126 -35 c29 -30 4 -66 -46 -66 -32 0 -60 19 -60 40 0 36 76 55 106 26z"/>
<path d="M2541 824 c-7 -8 -10 -18 -6 -22 4 -4 10 -1 12 6 11 28 83 4 83 -28
0 -6 -22 -33 -50 -60 -68 -66 -66 -80 10 -80 33 0 60 4 60 10 0 6 -18 10 -40
10 -22 0 -40 3 -40 6 0 3 18 23 40 44 43 41 53 88 26 116 -19 18 -77 17 -95
-2z"/>
<path d="M3983 805 c-18 -19 -33 -41 -33 -50 0 -8 -4 -15 -10 -15 -5 0 -10 -9
-10 -20 0 -17 7 -20 40 -20 38 0 40 -2 40 -30 0 -23 4 -30 20 -30 15 0 20 7
20 29 0 16 6 32 13 35 10 5 10 7 0 12 -8 4 -13 27 -13 65 0 50 -3 59 -17 58
-10 0 -33 -16 -50 -34z m27 -45 c0 -38 -2 -40 -30 -40 -35 0 -38 10 -10 30 11
8 20 22 20 32 0 10 5 18 10 18 6 0 10 -18 10 -40z"/>
<path d="M5333 815 c-33 -35 -32 -117 2 -150 13 -14 34 -25 45 -25 27 0 70 43
70 70 0 29 -44 70 -75 70 -14 0 -25 3 -25 6 0 14 31 34 54 34 14 0 26 5 26 10
0 6 -17 10 -37 9 -27 0 -45 -7 -60 -24z m77 -74 c0 -11 6 -22 13 -25 10 -5 10
-7 0 -12 -7 -3 -13 -14 -13 -25 0 -14 -7 -19 -30 -19 -28 0 -30 3 -30 35 0 20
6 42 13 50 18 21 47 18 47 -4z"/>
<path d="M6710 821 c0 -11 -6 -22 -12 -25 -10 -5 -10 -7 0 -12 14 -7 17 -64 2
-64 -15 0 -12 -49 4 -66 19 -18 93 -18 112 0 20 21 17 56 -8 77 l-21 19 22 20
23 19 -26 26 c-32 32 -96 36 -96 6z m80 -31 c0 -27 -3 -30 -30 -30 -27 0 -30
3 -30 30 0 27 3 30 30 30 27 0 30 -3 30 -30z m6 -64 c8 -8 14 -20 14 -26 0
-18 -27 -40 -50 -40 -23 0 -50 21 -50 40 0 35 59 53 86 26z"/>
<path d="M8010 820 c0 -11 5 -20 10 -20 6 0 10 5 10 10 0 6 5 10 10 10 6 0 10
-33 10 -80 0 -73 -2 -80 -20 -80 -11 0 -20 -4 -20 -10 0 -6 27 -10 60 -10 33
0 60 4 60 10 0 6 -13 10 -30 10 l-30 0 0 90 0 90 -30 0 c-23 0 -30 -4 -30 -20z"/>
<path d="M8170 820 c0 -11 -4 -20 -10 -20 -6 0 -10 -27 -10 -60 0 -33 4 -60
10 -60 6 0 10 -9 10 -20 0 -16 7 -20 36 -20 38 0 64 18 64 44 0 9 5 16 10 16
6 0 10 18 10 40 0 22 -4 40 -10 40 -5 0 -10 7 -10 16 0 26 -26 44 -64 44 -29
0 -36 -4 -36 -20z m66 -14 c32 -32 12 -146 -26 -146 -25 0 -40 30 -40 80 0 70
31 101 66 66z"/>
<path d="M9410 820 c0 -11 5 -20 10 -20 6 0 10 5 10 10 0 6 5 10 10 10 6 0 10
-33 10 -80 0 -73 -2 -80 -20 -80 -11 0 -20 -4 -20 -10 0 -6 27 -10 60 -10 33
0 60 4 60 10 0 6 -13 10 -30 10 l-30 0 0 90 0 90 -30 0 c-23 0 -30 -4 -30 -20z"/>
<path d="M9550 820 c0 -11 5 -20 10 -20 6 0 10 5 10 10 0 15 49 12 66 -4 22
-23 17 -34 -36 -86 -68 -66 -66 -80 10 -80 33 0 60 4 60 10 0 6 -18 10 -40 10
-22 0 -40 3 -40 6 0 3 18 23 40 44 30 29 40 46 40 70 0 44 -20 60 -74 60 -39
0 -46 -3 -46 -20z"/>
<path d="M10790 820 c0 -11 5 -20 10 -20 6 0 10 5 10 10 0 6 5 10 10 10 6 0
10 -33 10 -80 0 -73 -2 -80 -20 -80 -11 0 -20 -4 -20 -10 0 -6 27 -10 60 -10
33 0 60 4 60 10 0 6 -13 10 -30 10 l-30 0 0 90 0 90 -30 0 c-23 0 -30 -4 -30
-20z"/>
<path d="M10990 822 c0 -10 -9 -24 -20 -32 -11 -8 -20 -22 -20 -32 0 -10 -4
-18 -10 -18 -5 0 -10 -9 -10 -20 0 -17 7 -20 40 -20 38 0 40 -2 40 -30 0 -16
5 -30 10 -30 6 0 10 8 10 18 0 10 9 24 20 32 11 8 20 18 20 22 0 4 -9 8 -20 8
-18 0 -20 7 -20 60 0 53 -2 60 -20 60 -13 0 -20 -7 -20 -18z m20 -62 c0 -38
-2 -40 -30 -40 -16 0 -30 5 -30 10 0 6 5 10 10 10 6 0 10 7 10 15 0 17 20 44
33 45 4 0 7 -18 7 -40z"/>
<path d="M6550 370 c0 -67 4 -110 10 -110 6 0 10 43 10 110 0 67 -4 110 -10
110 -6 0 -10 -43 -10 -110z"/>
<path d="M6230 390 c0 -16 5 -30 10 -30 6 0 10 -13 10 -30 0 -16 5 -30 10 -30
6 0 10 -9 10 -20 0 -13 7 -20 20 -20 13 0 20 7 20 20 0 11 5 20 10 20 6 0 10
9 10 20 0 11 5 20 10 20 6 0 10 14 10 30 0 17 5 30 10 30 6 0 10 5 10 10 0 6
-9 10 -20 10 -16 0 -20 -7 -20 -30 0 -16 -4 -30 -10 -30 -5 0 -10 -13 -10 -30
0 -16 -3 -30 -6 -30 -14 0 -34 31 -34 54 0 14 -4 26 -10 26 -5 0 -10 9 -10 20
0 11 -4 20 -10 20 -5 0 -10 -13 -10 -30z"/>
<path d="M6390 410 c0 -5 12 -10 26 -10 23 0 54 -20 54 -34 0 -3 -16 -6 -36
-6 -40 0 -64 -19 -64 -50 0 -12 6 -28 14 -36 18 -17 62 -18 70 -1 5 10 7 10
12 0 3 -7 14 -13 25 -13 16 0 19 7 19 50 0 28 -4 50 -10 50 -5 0 -10 7 -10 16
0 8 -6 22 -14 30 -16 16 -86 19 -86 4z m80 -86 c0 -18 -23 -44 -40 -44 -6 0
-18 7 -26 15 -13 12 -13 17 -2 29 18 21 68 21 68 0z"/>
</g>
</svg>
